<svg width="180" height="112" viewBox="0 0 180 112" fill="none" xmlns="http://www.w3.org/2000/svg">
<g clip-path="url(#clip0)">
<path d="M63.4729 21.4565C51.4539 26.0544 38.4922 28.3168 25.5306 28.1709C27.1802 29.6305 29.3798 30.5793 31.6579 30.8712C33.1505 31.0171 34.7216 30.8712 36.2141 30.7252C43.2056 29.9954 50.3541 29.2656 56.9528 26.9302C60.1736 25.8354 63.3158 24.3028 66.7723 24.0839" fill="#FF825C"/>
<path d="M118.069 22.4053C124.432 24.0109 130.795 25.6894 137.236 27.295C140.929 28.2438 144.699 29.1926 148.548 28.6817C149.334 29.4845 148.706 30.9441 147.606 31.455C146.506 31.8929 145.249 31.6739 144.071 31.455C135.273 29.7764 126.553 28.0249 117.99 25.5435C117.205 25.3245 116.184 24.4488 116.891 23.9379" fill="#FF825C"/>
<path d="M8.48409 21.0188C6.44165 22.6974 5.1062 25.1058 5.02765 27.6601C4.94909 30.2145 6.20598 32.7689 8.40553 34.3015C11.7834 36.7099 16.4968 36.272 20.6602 35.4692C23.0954 35.0313 25.6092 34.3744 27.5731 32.9148C28.5158 32.185 29.2228 31.3092 29.4584 30.2145C29.8512 28.244 28.4372 26.4194 27.0232 24.9598C24.7451 22.6974 21.9171 20.6539 18.6963 19.7781C15.4755 18.9023 11.7049 19.1943 9.03398 21.1648" fill="#FFD2C3"/>
<path d="M168.895 23.5005C167.166 22.5518 165.36 21.53 163.317 21.2381C161.982 21.0192 160.568 21.1651 159.232 21.3111C154.912 21.8949 150.277 23.0627 147.685 26.2738C146.506 27.6605 145.799 29.558 146.428 31.2366C147.213 33.572 150.041 34.7397 152.634 35.3966C156.169 36.1994 159.782 36.5643 163.396 36.3453C164.26 36.2723 165.124 36.1994 165.909 35.9074C167.009 35.3966 167.873 34.5208 168.502 33.572C170.387 31.0906 171.723 27.6605 170.151 25.0332" fill="#FFD2C3"/>
<path d="M59.7022 20.7995C63.3158 29.7032 66.9293 38.607 70.5429 47.4378C74.0779 56.1226 77.6129 64.8074 79.4196 73.8571C81.9334 86.118 81.305 98.6709 80.598 111.151C86.7253 107.721 94.8165 107.648 100.944 110.932C100.394 105.02 99.7655 98.9628 100.551 93.0513C101.415 86.6289 103.85 80.5714 105.736 74.295C109.821 60.7934 111.235 46.635 115.712 33.2063C117.283 28.5355 119.404 23.7917 123.489 20.6535C128.517 16.7855 135.587 16.2746 141.636 13.9392C147.37 11.7497 152.241 7.8817 158.132 6.13014C164.024 4.37858 171.801 5.61927 174.158 10.9469C175.336 13.7202 174.708 17.0774 172.508 19.2668C170.308 21.4563 166.695 22.2591 163.71 21.3103C164.731 21.8942 165.752 22.478 166.773 23.1349C166.066 23.7917 165.359 24.5215 164.731 25.1784C165.674 25.3243 166.695 25.4703 167.638 25.5433C167.402 26.638 167.166 27.6597 166.931 28.7545C167.952 28.3895 168.894 28.0246 169.916 27.6597C169.916 28.8274 169.916 30.0681 169.916 31.2358C174.472 27.6597 177.85 22.697 179.342 17.2963C180.049 14.815 180.364 12.1876 179.421 9.70624C178.321 6.78697 175.65 4.59753 172.744 3.13789C166.616 -0.0733006 159.154 -0.949081 152.398 0.656516C143.207 2.84597 135.508 9.41431 126.082 10.509C112.177 12.1876 98.98 1.82422 85.1542 3.72175C79.1054 4.59753 73.7636 7.66276 68.0291 9.56028C60.5663 11.9687 52.318 12.3336 44.6981 10.509C37.2353 8.75748 30.401 4.96243 22.8596 3.35684C15.3183 1.75124 5.97021 3.35684 1.96387 9.4873C-2.04246 15.6178 0.706984 23.5728 4.32054 29.8492C4.71332 28.9004 5.02754 27.9517 5.42032 27.0759C6.12732 27.5138 6.91287 27.9517 7.61987 28.3895C7.77698 27.2948 7.54132 26.2001 6.99143 25.2513C8.48398 25.7622 10.0551 26.2731 11.5476 26.7839C10.3693 25.7622 9.42665 24.5215 8.64109 23.2078C10.0551 23.6457 11.5476 23.7917 12.9616 23.7187C12.2546 23.2078 11.6262 22.697 10.9192 22.1861C11.7048 21.8212 12.4118 21.3833 13.1973 21.0184C9.66232 21.3103 6.99143 17.2963 8.09121 14.1581C9.19098 11.0199 12.8045 9.12239 16.261 8.90344C19.7174 8.6845 23.2524 9.70624 26.5518 10.728C37.471 14.0851 48.1545 17.5153 58.7595 21.1644" fill="#FF825C"/>
<path d="M83.3475 108.743C83.0333 104.364 83.1119 99.9121 83.7403 95.5332C83.976 93.9276 84.2117 92.322 84.2117 90.7164C84.1331 88.8919 83.6618 87.1404 83.3475 85.3888C82.6405 81.7397 82.3263 77.9447 82.4834 74.2226C82.4834 73.8577 82.562 73.4198 82.7191 73.1279C83.1119 72.4711 84.1331 72.3251 84.9187 72.3251C89.632 72.0332 94.4239 71.8142 99.1372 71.5223C100.001 71.4493 100.944 71.5223 101.415 72.1791C101.73 72.617 101.651 73.1279 101.651 73.5658C100.944 80.2801 98.116 86.7025 97.4875 93.3438C96.9377 98.5985 97.8018 103.78 98.5873 109.035C93.167 107.137 88.2965 105.897 83.3475 108.743Z" fill="#FEA17A"/>
<path d="M90.3388 73.2735C90.3388 73.2735 90.3388 65.0995 89.0819 62.3262C87.8251 59.5529 89.0819 47.6569 89.0819 47.6569C89.0819 47.6569 84.7614 37.4395 80.0481 34.3012C75.3347 31.0901 73.3708 23.281 73.3708 23.281C73.3708 23.281 62.7658 18.6102 57.8954 18.4642C53.0249 18.3183 40.2204 13.7934 40.2204 13.7934C40.2204 13.7934 24.2736 3.35703 13.0402 7.00611C1.80673 10.6552 5.49884 19.559 9.97651 24.3028L7.06995 29.6304C7.06995 29.6304 0.39273 22.9161 1.09973 15.545C1.80673 8.17381 10.7621 4.88964 10.7621 4.88964C10.7621 4.88964 22.2312 0.875649 46.1906 14.4502C46.1906 14.4502 59.9378 17.1506 68.0291 15.253C76.1203 13.3555 89.6318 10.5822 98.2729 12.5527C106.914 14.5232 113.905 17.0776 116.655 17.0776C119.404 17.0776 133.073 14.0853 137.001 11.531C140.929 9.04959 155.697 3.35703 155.697 3.35703C155.697 3.35703 167.952 -1.02187 176.043 7.00611C184.134 15.0341 174.943 23.208 174.943 23.208L169.366 27.5869L164.652 24.5217C164.652 24.5217 175.493 20.8726 176.357 16.6397C177.221 12.4797 174.393 5.40051 166.773 5.25455C159.153 5.10859 150.591 6.56822 144.464 10.5822C138.336 14.5962 125.924 18.4642 125.924 18.4642L114.77 21.0186C114.77 21.0186 109.349 22.6972 107.385 26.9301C105.421 31.163 96.0734 40.5777 96.0734 40.5777C96.0734 40.5777 93.1668 45.9053 93.4025 50.2842C93.5596 54.6631 94.8165 71.5219 93.7953 74.0762" fill="#FEA17A"/>
</g>
<defs>
<clipPath id="clip0">
<rect width="179.892" height="111.224" fill="white"/>
</clipPath>
</defs>
</svg>
