<svg width="165" height="155" viewBox="0 0 165 155" fill="none" xmlns="http://www.w3.org/2000/svg">
<g clip-path="url(#clip0)">
<path d="M22.054 44.7183C22.054 44.7183 3.5957 54.4791 0.838937 73.4806C0.838937 73.4806 -7.62024e-05 82.6014 3.03635 87.6818C6.07278 92.7222 4.67443 100.243 4.67443 100.243C4.67443 100.243 3.35598 105.403 0.998749 108.764C-1.35848 112.124 1.19851 114.284 1.19851 114.284C1.19851 114.284 4.67443 115.164 7.71086 115.204C10.7473 115.284 8.74964 120.484 8.74964 120.484C8.74964 120.484 6.15269 123.445 11.7461 124.925C11.7461 124.925 9.46879 127.765 13.1045 129.125C16.7402 130.485 15.9811 130.805 15.9811 130.805C15.9811 130.805 16.9001 132.845 16.5804 134.726C16.2608 136.646 18.4183 140.006 20.8954 142.046C23.3724 144.086 29.1656 142.606 29.1656 142.606C29.1656 142.606 32.7215 141.606 35.7978 138.926C38.8742 136.246 46.9847 132.405 46.9847 132.405C46.9847 132.405 51.5393 130.525 54.2162 136.246C56.893 141.926 57.8119 155.007 57.8119 155.007H90.7732C90.7732 155.007 76.1903 142.326 85.5793 105.283C95.8472 64.8799 54.8155 22.5564 22.054 44.7183Z" fill="#FEA17A"/>
<path d="M12.7052 94.4822C12.7052 94.4822 10.7875 96.8824 9.14941 96.8424C9.14941 96.8424 20.6958 97.4824 23.6124 90.9219C23.5725 90.9219 17.2998 95.0822 12.7052 94.4822Z" fill="#144264"/>
<path d="M16.1695 99.6616C16.1695 99.6616 13.0776 109.593 16.8113 109.716C20.4866 109.839 16.1695 99.6616 16.1695 99.6616Z" fill="#7DCACA"/>
<path d="M7.27159 56.7591C7.27159 56.7591 3.55596 68.4001 22.8932 80.8811C42.2305 93.3621 46.9849 91.642 52.7781 108.403C52.7781 108.403 52.4984 98.3625 46.4255 88.5617C46.4255 88.5617 53.8169 106.323 67.321 117.164C67.321 117.164 63.3656 88.8018 47.9837 72.6404C32.6018 56.4791 7.27159 56.7591 7.27159 56.7591Z" fill="#144264"/>
<path d="M7.96984 56.7772C-3.53663 58.2973 15.521 42.576 20.3553 38.8157C30.5033 30.895 43.4481 26.1346 56.2331 27.2547C69.0181 28.3748 81.5234 35.8154 87.2366 47.3764C88.3953 49.7366 89.514 52.4968 91.9111 53.6169C94.0686 54.617 96.6256 53.9769 98.9429 53.3769C103.537 52.1768 108.332 51.2967 113.086 51.8968C117.841 52.4968 122.475 54.697 125.072 58.6973C127.509 62.4176 127.829 67.058 127.949 71.4984C128.149 79.9791 127.709 88.4998 128.428 96.9405C129.147 105.381 131.105 113.942 135.66 121.102C126.031 115.262 122.116 103.501 118.959 92.7001C122.235 101.501 125.512 110.422 126.311 119.782C127.11 129.143 125.192 139.144 119.039 146.224C112.247 141.944 107.693 134.584 105.695 126.783C103.737 118.982 104.177 110.702 105.815 102.821C107.093 96.7404 109.051 90.6599 108.452 84.4994C107.852 78.3389 103.737 71.8984 97.5845 71.1783C101.859 80.0991 100.421 89.8199 98.7431 99.5407C97.0651 109.301 93.4294 116.702 85.9581 123.383C83.0416 120.742 77.7278 122.583 76.689 118.782C73.1732 105.701 67.2601 89.5398 55.7137 82.4193C44.1673 75.2987 31.4223 70.4583 19.9557 63.2577" fill="#144264"/>
<path d="M8.07061 121.205C9.02949 119.645 11.0271 119.445 12.865 119.365C14.7827 119.325 15.8614 120.085 17.6993 120.565C19.0976 120.925 20.0565 121.005 21.4948 120.845C21.7745 120.805 23.1329 120.245 23.2927 120.485C23.4525 120.685 22.5336 121.325 22.2539 121.605C21.4149 122.485 21.0953 122.765 20.0166 123.925C19.2175 124.805 18.9378 125.245 18.0189 126.005C17.3797 126.525 16.9801 127.085 16.5806 127.805C16.261 128.406 15.5818 128.766 14.9425 129.126C14.1834 129.526 13.3045 129.166 12.5054 128.846C11.7862 128.526 11.0271 128.165 10.6276 127.445C10.268 126.765 10.308 125.565 10.9073 125.005C10.6676 124.925 10.0683 124.925 9.82855 124.805C9.10939 124.525 8.82972 124.405 8.31033 123.845C7.75099 123.285 7.51127 122.365 7.87085 121.685" fill="#FF825C"/>
<rect width="57.5823" height="40.1542" rx="6" transform="matrix(0.987215 -0.159406 0.15543 0.987849 59.8698 108.841)" fill="#C4C4C4"/>
<ellipse rx="2.35094" ry="2.36286" transform="matrix(0.987213 -0.15942 0.155417 0.987851 69.1995 117.676)" fill="#F9F9F9"/>
<ellipse rx="2.35096" ry="2.36287" transform="matrix(0.987213 -0.159419 0.155418 0.987851 70.3081 124.685)" fill="#F9F9F9"/>
<ellipse rx="2.35094" ry="2.36287" transform="matrix(0.987213 -0.159421 0.155416 0.987851 71.4169 131.695)" fill="#F9F9F9"/>
<ellipse rx="2.35095" ry="2.36288" transform="matrix(0.987213 -0.159421 0.155416 0.987851 72.5255 138.704)" fill="#FBDEC4"/>
<ellipse rx="2.35096" ry="2.36288" transform="matrix(0.987213 -0.15942 0.155417 0.987851 76.1552 116.559)" fill="#F9F9F9"/>
<ellipse rx="2.35095" ry="2.36287" transform="matrix(0.987213 -0.159419 0.155417 0.987851 77.2639 123.568)" fill="#F9F9F9"/>
<ellipse rx="2.35095" ry="2.36288" transform="matrix(0.987213 -0.15942 0.155417 0.987851 78.3726 130.578)" fill="#F9F9F9"/>
<ellipse rx="2.35095" ry="2.36289" transform="matrix(0.987213 -0.159421 0.155416 0.987851 79.4812 137.587)" fill="#FBDEC4"/>
<ellipse rx="2.35096" ry="2.36286" transform="matrix(0.987213 -0.159419 0.155418 0.987851 83.1107 115.441)" fill="#F9F9F9"/>
<ellipse rx="2.35095" ry="2.36286" transform="matrix(0.987213 -0.159419 0.155418 0.987851 84.2195 122.451)" fill="#F9F9F9"/>
<ellipse rx="2.35096" ry="2.36287" transform="matrix(0.987213 -0.159419 0.155418 0.987851 85.3281 129.46)" fill="#F9F9F9"/>
<ellipse rx="2.35096" ry="2.36286" transform="matrix(0.987213 -0.159419 0.155418 0.987851 86.4369 136.47)" fill="#FBDEC4"/>
<ellipse rx="2.35095" ry="2.36288" transform="matrix(0.987213 -0.15942 0.155417 0.987851 90.0665 114.324)" fill="#F9F9F9"/>
<ellipse rx="2.35095" ry="2.36287" transform="matrix(0.987213 -0.159419 0.155417 0.987851 91.1752 121.333)" fill="#F9F9F9"/>
<ellipse rx="2.35095" ry="2.36287" transform="matrix(0.987213 -0.15942 0.155417 0.987851 92.2839 128.343)" fill="#F9F9F9"/>
<ellipse rx="2.35094" ry="2.36287" transform="matrix(0.987213 -0.15942 0.155417 0.987851 93.3926 135.352)" fill="#FBDEC4"/>
<ellipse rx="2.35095" ry="2.36287" transform="matrix(0.987213 -0.15942 0.155417 0.987851 97.0222 113.206)" fill="#F9F9F9"/>
<ellipse rx="2.35095" ry="2.36286" transform="matrix(0.987213 -0.159419 0.155418 0.987851 98.1309 120.216)" fill="#F9F9F9"/>
<ellipse rx="2.35095" ry="2.36287" transform="matrix(0.987213 -0.15942 0.155417 0.987851 99.2395 127.225)" fill="#F9F9F9"/>
<ellipse rx="2.35095" ry="2.36288" transform="matrix(0.987213 -0.159421 0.155416 0.987851 100.348 134.235)" fill="#FBDEC4"/>
<ellipse rx="2.35095" ry="2.36286" transform="matrix(0.987213 -0.159419 0.155418 0.987851 103.978 112.089)" fill="#F9F9F9"/>
<ellipse rx="2.35095" ry="2.36287" transform="matrix(0.987213 -0.15942 0.155417 0.987851 105.087 119.099)" fill="#F9F9F9"/>
<ellipse rx="2.35095" ry="2.36286" transform="matrix(0.987213 -0.159419 0.155417 0.987851 106.195 126.108)" fill="#F9F9F9"/>
<ellipse rx="2.35095" ry="2.36288" transform="matrix(0.987213 -0.15942 0.155417 0.987851 107.304 133.118)" fill="#FBDEC4"/>
<ellipse rx="2.35096" ry="2.36287" transform="matrix(0.987213 -0.159419 0.155418 0.987851 110.934 110.972)" fill="#F9F9F9"/>
<ellipse rx="2.35095" ry="2.36286" transform="matrix(0.987213 -0.159419 0.155418 0.987851 112.042 117.981)" fill="#F9F9F9"/>
<ellipse rx="2.35096" ry="2.36286" transform="matrix(0.987213 -0.159419 0.155418 0.987851 113.151 124.991)" fill="#F9F9F9"/>
<ellipse rx="2.35095" ry="2.36288" transform="matrix(0.987213 -0.15942 0.155417 0.987851 114.26 132.001)" fill="#FBDEC4"/>
<path d="M66.1418 113.375L111.933 106.02" stroke="#A3A3A3" stroke-width="0.5"/>
</g>
<defs>
<clipPath id="clip0">
<rect width="164.721" height="154.967" fill="white"/>
</clipPath>
</defs>
</svg>
