<svg width="218" height="114" viewBox="0 0 218 114" fill="none" xmlns="http://www.w3.org/2000/svg">
<g clip-path="url(#clip0)">
<path d="M197.711 109.331C197.417 111.113 196.386 112.599 195.06 113.787H129.573C129.868 110.742 131.341 107.771 133.698 105.84C135.687 104.132 138.339 103.092 139.886 100.864C139.96 100.789 139.96 100.715 140.033 100.641C140.033 100.566 140.107 100.566 140.107 100.492C142.096 97.2241 140.696 92.322 137.234 90.688C135.835 90.0196 134.288 89.871 132.888 89.3511C128.1 87.7914 125.08 83.1121 122.354 78.8042C118.671 72.7881 114.914 66.6976 113.22 59.8645C112.41 56.745 112.115 53.4769 111.084 50.4317C110.495 48.6491 109.611 46.9408 109.242 45.084C109.021 44.0442 108.948 43.0786 108.948 42.0388C108.948 38.7707 109.684 35.5027 109.242 32.2347L108.579 32.606C110.347 25.6986 113.22 19.0882 117.124 13.1463C118.082 11.6609 119.26 10.1011 120.807 9.2841C121.249 9.06128 121.765 8.83846 122.281 8.68991C123.238 8.39282 124.343 8.31854 125.301 8.24427C129.942 7.8729 134.73 7.50153 139.149 8.98701C142.833 10.2497 146 12.7007 149.094 15.1517C155.503 20.2023 162.28 25.7729 164.342 33.7201C164.637 34.76 164.858 35.9483 165.447 36.8396C166.036 37.7309 167.141 38.4736 168.246 38.1766C168.836 38.028 169.278 37.5824 169.793 37.2853C171.266 36.394 173.255 36.6911 174.655 37.5824C176.055 38.5479 177.086 40.0334 177.675 41.6674C179.959 47.1637 178.559 53.9968 174.287 58.2304C173.845 58.6761 173.329 59.1217 173.182 59.7159C173.034 60.0873 173.108 60.5329 173.108 60.9043C173.845 70.857 174.802 80.7354 175.981 90.6137C176.202 92.3963 176.423 94.2532 177.38 95.8129C178.485 97.5955 180.474 98.6353 182.39 99.6009C186.809 101.903 191.229 104.132 195.723 106.434C195.944 106.508 196.091 106.657 196.312 106.731C196.827 106.954 197.343 107.251 197.638 107.771C197.859 108.217 197.785 108.811 197.711 109.331Z" fill="#FEA17A"/>
<path d="M139.812 99.6008C139.96 99.8979 140.033 100.195 140.107 100.492L137.971 99.3779C138.56 99.4522 139.149 99.5265 139.812 99.6008Z" fill="#144264"/>
<path d="M138.118 106.583C136.792 108.588 135.54 110.594 134.214 112.673C133.993 113.045 133.698 113.49 133.404 113.788H95.4671C95.2462 112.154 95.0988 110.519 94.8778 108.885V108.811C94.6569 106.657 94.5095 104.578 94.3622 102.424C94.2885 101.012 94.2149 99.527 94.6569 98.1158C94.8778 97.2988 95.3198 96.4818 95.9091 95.8133C96.2774 95.442 96.7194 95.1449 97.2351 94.922C98.2663 94.5507 99.4449 94.6992 100.55 94.8478C113.662 96.7046 126.774 98.6357 139.886 100.493C139.96 100.493 139.96 100.493 140.033 100.493C140.475 102.646 139.297 104.8 138.118 106.583Z" fill="#144264"/>
<path d="M140.475 100.641C140.328 100.641 140.254 100.641 140.107 100.567C140.107 100.492 140.107 100.492 140.107 100.418L140.475 100.641Z" fill="#144264"/>
<path d="M118.155 14.4832C120.955 14.1118 123.459 12.3292 126.258 12.1807C130.973 11.9579 134.361 16.34 138.192 19.0881C144.748 23.8417 154.471 24.5844 158.67 31.5661C159.996 33.7943 160.733 36.6167 162.942 37.9537C165.521 39.4391 168.835 38.2507 171.561 39.2906C174.581 40.479 176.054 44.0441 175.833 47.3121C175.612 50.5802 174.139 53.5511 172.74 56.5221C171.414 59.493 170.161 62.6125 170.456 65.8806C170.677 67.6631 171.34 69.52 170.824 71.3025C170.309 73.0851 167.804 74.3477 166.699 72.8623C167.51 74.7934 169.719 75.9075 171.708 75.4619C171.193 76.8731 170.235 78.1357 168.983 78.9527C170.53 83.1863 172.813 88.0884 177.233 88.9054C181.947 89.7224 186.146 84.8203 186.073 80.0668C186.22 81.1067 186.367 82.1465 186.588 83.1863C188.209 79.7697 188.872 75.9075 188.651 72.1938C188.577 72.6395 188.577 73.0851 188.503 73.605C189.682 68.4801 190.861 62.9096 188.503 58.2304C188.061 57.3391 187.472 56.5221 187.178 55.5565C186.736 54.2196 186.883 52.7341 186.883 51.3229C187.104 37.1366 177.675 24.3616 166.257 16.1172C154.324 7.35291 139.444 2.22802 124.638 3.11931C119.481 3.4164 113.883 4.67905 110.494 8.61556C109.021 10.3239 108.064 12.4035 107.253 14.4832C104.675 21.3164 103.717 28.6694 102.981 35.9483C102.171 43.747 101.508 51.62 102.465 59.3445C103.202 65.5835 105.043 71.7482 105.78 77.9872C106.664 85.6373 106.296 94.1788 111.452 99.8979C110.568 97.8182 109.979 95.6643 109.758 93.4361C110.2 93.8074 110.642 94.1788 111.084 94.5502C110.052 86.9743 109.095 79.3241 108.064 71.7482C108.874 80.1411 110.052 88.534 111.599 96.8527C111.968 98.6352 112.336 100.492 113.367 101.978C114.251 103.166 115.577 104.057 116.903 104.726C118.892 105.766 121.249 106.508 123.385 105.84C125.522 105.171 127.216 102.572 126.111 100.566C128.542 100.863 130.899 101.161 133.33 101.458C131.93 100.195 130.678 98.7838 129.72 97.224C132.667 99.0066 136.571 100.715 139.223 98.561C141.948 96.2585 140.623 91.505 137.897 89.2025C135.171 86.9 131.488 86.083 128.395 84.3004C122.87 80.9581 119.776 74.7934 117.05 68.8515C115.283 65.0635 113.588 61.2013 112.925 57.1163C112.557 54.7395 112.557 52.3627 112.115 49.986C111.526 47.015 110.273 44.1926 109.684 41.2217C107.916 31.9375 113.073 22.8761 118.008 14.8545" fill="#C4C4C4"/>
<path d="M217.821 113.787H192.26C192.629 113.193 193.218 112.747 193.66 112.301C195.133 110.89 195.943 108.736 195.722 106.657L195.649 106.508C196.533 105.617 198.006 105.617 199.185 105.988C200.437 106.359 201.468 107.102 202.647 107.548C204.415 108.291 206.404 108.365 208.245 108.959C210.75 109.776 212.886 111.484 215.39 112.227C215.98 112.376 216.643 112.524 217.158 112.97C217.527 113.193 217.748 113.415 217.821 113.787Z" fill="#144264"/>
<path d="M127.953 69.5199C127.953 68.8514 127.511 68.1829 127.29 67.5145C127.142 66.9203 127.29 66.3261 127.363 65.7319C127.584 64.6921 127.953 63.578 128.395 62.6124C128.616 62.0182 128.984 61.424 129.573 61.2755C129.868 61.2012 130.162 61.2012 130.383 61.127C130.973 60.9784 131.415 60.607 131.857 60.3099C133.477 59.2701 135.687 59.4187 137.529 60.0128C139.37 60.607 141.065 61.6469 142.832 62.4639C143.201 62.6124 143.643 62.9095 143.495 63.2809C143.422 63.4294 143.274 63.5037 143.201 63.6522C141.58 64.9892 141.065 67.2916 139.223 68.4058C138.118 69.0742 136.645 69.1485 135.393 69.5199C134.582 69.7427 133.846 70.1883 132.962 70.4111C131.341 70.7825 129.647 70.3369 128.026 69.8169" fill="#FF825C"/>
<path d="M120.142 8.17089C120.879 8.17089 121.689 8.31943 122.279 8.76507C122.794 9.13644 122.942 9.87918 122.647 10.3991C118.448 17.7522 114.912 25.5509 112.187 33.5725C111.229 36.3949 110.345 39.3658 109.019 42.0397C108.651 42.7824 108.209 43.5252 107.767 44.2679C104.231 49.9127 98.3383 53.4778 92.5926 56.8201C81.5431 63.2819 70.4937 69.818 59.5179 76.2798C53.9195 79.5479 48.1738 82.9645 43.975 87.9408C49.7207 87.6437 55.3191 89.7976 60.9175 91.4317C72.2616 94.774 84.195 96.1852 95.981 95.4425L96.0547 95.8881L96.202 96.408C95.3181 100.493 94.8761 104.652 95.0234 108.812C95.0971 110.446 95.1708 112.08 95.3917 113.714H43.754C41.3968 112.822 39.1869 111.708 36.977 110.52C25.8539 104.875 14.7308 99.2304 4.93366 91.4317C3.38674 90.169 1.83982 88.8321 0.882199 87.0495C-0.0754193 85.267 -0.370071 83.0387 0.734873 81.3305C1.54517 80.0678 2.94476 79.3251 4.12337 78.4338C6.70157 76.6512 8.76413 74.2002 11.195 72.3433C13.4049 70.635 15.8358 69.3724 18.3403 68.184C31.1577 61.945 44.5643 56.8944 58.2656 53.1065C63.7167 51.621 69.2414 50.2841 74.3242 47.9073C79.4069 45.4563 84.1213 41.8169 86.6995 36.692C87.9518 34.1667 88.6884 31.27 90.3827 29.0418C92.6662 26.0708 96.4967 24.5854 98.8539 21.6887C100.327 19.8319 101.137 17.4551 102.095 15.3012C103.716 11.4389 105.852 7.79952 108.43 4.53148C109.682 2.89745 111.892 1.33771 113.66 1.56053C114.544 1.6348 114.912 2.67463 114.397 3.41737C110.861 8.02234 108.062 13.2215 105.999 18.6435C108.356 14.2613 110.935 10.102 113.807 6.01695C115.281 3.93729 116.828 1.85762 119.111 0.743518C120.437 0.0750546 122.131 -0.22204 123.605 0.149328C124.562 0.372149 125.004 1.33771 124.636 2.30326C123.605 5.05139 122.058 6.53686 120.142 8.17089Z" fill="#FEA17A"/>
</g>
<defs>
<clipPath id="clip0">
<rect width="217.821" height="113.787" fill="white"/>
</clipPath>
</defs>
</svg>
