<svg width="138" height="135" viewBox="0 0 138 135" fill="none" xmlns="http://www.w3.org/2000/svg">
<g clip-path="url(#clip0)">
<path d="M0 133.884C0.145741 124.359 7.23849 116.217 15.3028 111.331C23.3672 106.446 32.5975 103.88 40.9533 99.5863C43.9653 98.0071 47.0259 96.0825 48.6776 93.0722C51.0095 88.7295 49.8435 83.3998 50.1836 78.4649C50.2808 77.2805 50.4265 76.0961 50.1836 74.9611C49.8921 73.8754 49.212 72.8884 48.5804 71.9508C42.1678 62.4265 39.8845 50.0892 42.5565 38.8376C43.5281 34.643 45.1798 30.5963 45.6656 26.303C46.3943 20.1343 45.1798 12.7813 49.8435 8.73473C52.6126 6.31663 56.5962 6.11923 60.2398 6.02053C65.9722 5.87249 71.7533 5.67509 77.4858 5.52704C79.1376 5.47769 80.935 5.47769 82.3924 6.26728C84.0442 7.20491 84.9672 9.08017 85.8416 10.8074C87.4448 14.1631 89.048 17.5189 90.6511 20.8746C92.4 24.5264 94.1489 28.1782 95.1691 32.0768C97.2095 39.8246 96.3836 48.0165 95.5092 55.9617C95.0234 60.5512 94.489 65.2887 92.3028 69.3847C91.4284 71.0625 90.2625 72.5923 89.7281 74.3689C89.1937 76.0961 89.1937 77.922 89.2423 79.748C89.2909 82.9063 89.3394 86.0153 89.388 89.1736C89.4366 90.8515 89.4852 92.628 90.3111 94.1085C90.9912 95.2929 92.1085 96.1318 93.2259 96.8721C101.29 102.597 109.986 107.433 119.022 111.282C123.589 113.207 128.398 114.983 131.993 118.487C136.171 122.534 138.211 128.653 137.337 134.427" fill="#FEA17A"/>
<path d="M62.6201 87.1505C62.1828 89.3218 62.8144 91.5426 63.7374 93.5659C64.6119 95.5892 65.7778 97.5138 66.3608 99.6358C67.0409 102.054 66.9923 104.669 66.9923 107.186C66.9437 110.789 66.8466 114.391 66.5551 117.994C66.4093 119.968 66.1664 121.942 66.3122 123.965C66.5551 126.482 67.4295 128.949 67.1381 131.466C67.1381 131.614 67.0895 131.811 67.1866 131.959C67.2838 132.107 67.4295 132.157 67.5753 132.206C68.887 132.7 70.3929 132.798 71.7532 132.502C72.1418 132.404 72.5305 132.305 72.7734 131.959C72.9677 131.663 73.0649 131.318 73.1135 130.972C73.7936 125.593 72.822 120.165 72.8706 114.737C72.8706 111.874 73.2106 108.963 73.5021 106.101C73.745 103.978 73.9393 101.856 74.7166 99.8825C75.4939 97.7605 76.9027 95.7372 76.9027 93.4672C76.9027 92.3321 76.5627 91.1971 76.6112 90.0127C76.6598 88.631 77.2914 87.2985 77.34 85.9168C77.34 85.67 77.3399 85.3739 77.1942 85.1765C77.097 84.9791 76.9027 84.8311 76.7084 84.7324C75.1538 83.5974 73.3564 82.3636 71.5103 82.9065C71.0245 83.0545 70.4901 83.3506 70.2958 83.8441C69.9557 84.683 70.5387 85.7687 70.1015 86.5583C70.0529 86.657 70.0043 86.7557 69.9071 86.805C69.6642 86.9037 69.3728 86.7063 69.3242 86.4596C69.227 86.2129 69.2756 85.9661 69.227 85.67C69.1299 84.0909 67.2838 83.1039 65.7778 83.4493C64.2718 83.8441 63.203 85.2259 62.6687 86.7063" fill="#FFD2C3"/>
<path d="M61.0169 93.4175C62.2314 92.776 63.9803 94.1578 64.4661 95.5395C64.952 96.9213 65.0005 98.3524 65.292 99.7342C65.5835 101.116 66.2636 102.596 67.5267 103.238C67.8182 103.386 68.1583 103.485 68.4983 103.485C69.2756 103.435 69.81 102.794 70.4901 102.399C71.1703 102.004 72.1904 102.004 72.4334 102.744C73.2106 102.35 73.6479 101.511 74.0365 100.721C74.911 98.994 75.6397 97.2174 76.2712 95.4408C76.6599 94.3552 77.1942 93.0721 78.3116 92.8253C79.0889 92.6773 79.9633 93.1214 80.4006 93.8123C80.8864 94.5032 81.0321 95.3421 81.1778 96.1317C81.275 96.9707 81.3236 97.8096 81.2264 98.6485C81.0807 99.9809 80.5463 101.264 80.0119 102.498C79.0889 104.62 78.1659 106.742 77.2914 108.864C76.9028 109.801 76.174 110.936 75.1539 110.69C74.7166 110.591 74.4252 110.246 74.1337 109.949C73.0163 108.716 71.7046 107.285 70.0529 107.433C68.887 107.531 67.9154 108.42 66.9923 109.209C66.0693 109.999 65.0005 110.788 63.8346 110.591C63.1545 110.492 62.5715 110.048 62.0857 109.555C60.9684 108.37 60.3368 106.742 59.8024 105.212C59.1223 103.238 58.5393 101.165 58.6365 99.0433C58.5879 96.9213 59.4138 94.75 61.0169 93.4175Z" fill="#FF825C"/>
<path d="M59.8511 55.8134C61.1141 54.2836 62.5716 53.0005 64.2233 51.9642C65.3406 51.2733 66.5066 50.7305 67.8183 50.5331C68.6441 50.4344 69.5186 50.4837 70.393 50.5331C71.9962 50.6318 73.6479 50.7798 75.2025 51.3226C77.0485 52.0135 78.7003 53.3459 79.7205 55.0238C79.8662 55.2212 79.9634 55.4186 79.9634 55.6654C79.9634 56.1095 79.5747 56.4549 79.1861 56.7017C75.834 58.873 71.6075 59.0211 67.6239 58.6756C64.8063 58.4289 61.8914 57.8861 59.5596 56.2575" fill="#FF825C"/>
<path d="M57.6162 3.99686C55.1386 3.05923 52.2724 3.70076 49.9891 5.13188C47.7058 6.563 46.0055 8.68501 44.4509 10.8564C36.338 22.5027 32.8402 36.7646 29.6339 50.681C27.545 59.6625 25.6017 69.2856 28.808 77.9217C29.8282 80.6359 31.3828 83.3007 31.1399 86.2123C30.9942 87.9395 30.2655 89.7654 31.0913 91.2953C31.6743 92.3809 32.8888 92.9238 34.0062 93.4173C36.1923 94.3549 38.5241 95.2432 40.8074 94.799C43.1879 94.3056 48.8232 91.7394 50.9607 92.8744C54.2156 79.2541 46.0541 65.7818 44.4995 51.8654C44.0137 47.572 43.9166 42.9826 46.0541 39.2321C47.1229 37.3568 48.1431 27.3389 49.6005 25.8091C55.333 19.6898 59.0251 14.903 62.4257 7.20454C68.5954 14.0641 78.3601 17.3704 86.7645 21.0716C89.4364 22.256 91.7683 31.8297 93.1285 34.4945C93.9058 36.0244 94.003 37.7516 94.1002 39.4788C94.3916 45.4994 94.5374 51.4706 94.5374 57.4912C94.5374 61.2911 94.3431 64.6961 92.8856 68.1999C92.1084 70.0752 90.3109 71.8518 89.5336 73.727C88.6591 75.9477 89.1449 78.81 89.0964 81.1787C88.9992 83.8929 88.8535 87.5447 89.3879 90.2096C89.5336 90.9992 90.1651 90.9005 90.7481 91.4433C91.4768 92.1342 92.5456 92.2329 93.5172 92.2822C96.9178 92.4796 100.513 92.677 103.622 91.2953C104.691 90.8018 105.662 90.1602 106.78 90.0122C109.646 89.6174 112.658 92.3316 115.135 90.8511C115.67 81.0307 115.767 71.2102 115.33 61.3898C115.038 54.1848 114.504 46.9798 112.658 39.9723C111.055 33.8037 108.48 27.9311 105.517 22.3053C102.359 16.2848 98.6667 10.3629 93.2743 6.21756C83.5582 -1.28349 69.6642 -1.53023 58.345 3.20727" fill="#7DCACA"/>
</g>
<defs>
<clipPath id="clip0">
<rect width="137.628" height="134.377" fill="white"/>
</clipPath>
</defs>
</svg>
