<svg width="375" height="460" viewBox="0 0 375 460" fill="none" xmlns="http://www.w3.org/2000/svg">
<circle cx="187.5" cy="270.5" r="187.5" fill="white" fill-opacity="0.07"/>
<path d="M237.55 336.5C223.25 336.5 212.433 330.633 205.1 318.9C198.867 309 195.75 296.9 195.75 282.6C195.75 264.267 200.333 247.767 209.5 233.1C219.033 218.433 233.333 206.7 252.4 197.9L257.35 207.8C245.983 212.567 236.083 220.083 227.65 230.35C219.583 240.617 215.55 251.067 215.55 261.7C215.55 266.1 216.1 269.95 217.2 273.25C223.067 268.483 229.85 266.1 237.55 266.1C247.45 266.1 255.7 269.4 262.3 276C269.267 282.233 272.75 290.667 272.75 301.3C272.75 311.2 269.267 319.633 262.3 326.6C255.7 333.2 247.45 336.5 237.55 336.5ZM144.05 336.5C129.75 336.5 118.933 330.633 111.6 318.9C105.367 309 102.25 296.9 102.25 282.6C102.25 264.267 106.833 247.767 116 233.1C125.533 218.433 139.833 206.7 158.9 197.9L163.85 207.8C152.483 212.567 142.583 220.083 134.15 230.35C126.083 240.617 122.05 251.067 122.05 261.7C122.05 266.1 122.6 269.95 123.7 273.25C129.567 268.483 136.35 266.1 144.05 266.1C153.95 266.1 162.2 269.4 168.8 276C175.767 282.233 179.25 290.667 179.25 301.3C179.25 311.2 175.767 319.633 168.8 326.6C162.2 333.2 153.95 336.5 144.05 336.5Z" fill="white" fill-opacity="0.1"/>
</svg>
